<?xml version="1.0" encoding="UTF-8"?>
<svg version="1.1" xmlns="http://www.w3.org/2000/svg" width="223" height="148">
<path d="M0 0 C73.59 0 147.18 0 223 0 C223 48.84 223 97.68 223 148 C149.41 148 75.82 148 0 148 C0 99.16 0 50.32 0 0 Z " fill="#FEFEFE" transform="translate(0,0)"/>
<path d="M0 0 C2.06064213 -0.00964269 4.12025788 -0.04068852 6.18066406 -0.07226562 C17.59835834 -0.16620482 27.763627 1.38448854 37.77441406 7.05273438 C38.72948853 7.5706958 38.72948853 7.5706958 39.70385742 8.09912109 C43.18312592 10.03985232 46.15764687 12.10628807 49.02441406 14.86523438 C49.99378906 15.64898437 50.96316406 16.43273437 51.96191406 17.24023438 C55.23433671 16.84419467 55.23433671 16.84419467 57.96191406 15.24023438 C58.95191406 14.91023438 59.94191406 14.58023438 60.96191406 14.24023438 C60.96191406 15.23023438 60.96191406 16.22023438 60.96191406 17.24023438 C58.96191406 18.92773438 58.96191406 18.92773438 56.96191406 20.24023438 C58.85022057 20.82750673 60.7480666 21.38416459 62.64941406 21.92773438 C63.70515625 22.24097656 64.76089844 22.55421875 65.84863281 22.87695312 C69.70974529 23.32749699 70.77420764 22.30671283 73.96191406 20.24023438 C80.31770238 19.36770354 86.66611977 19.35665189 91.96191406 23.24023438 C95.07609544 26.13675792 98.02510826 29.16552639 100.96191406 32.24023438 C102.36183594 33.30757812 102.36183594 33.30757812 103.79003906 34.39648438 C106.64225303 38.13103792 106.18934056 40.12999777 105.59277344 44.64257812 C105.37331055 45.99029297 105.37331055 45.99029297 105.14941406 47.36523438 C104.88291462 49.15804877 104.62596445 50.95231604 104.37988281 52.74804688 C104.25379639 53.53840332 104.12770996 54.32875977 103.99780273 55.14306641 C103.75772035 57.55020416 103.75772035 57.55020416 105.96191406 60.24023438 C103.97145755 62.23069089 100.26236589 61.91663527 97.52441406 62.24023438 C92.59533681 62.68384905 92.59533681 62.68384905 87.96191406 64.24023438 C86.06624866 64.33661236 84.16715624 64.36819672 82.26904297 64.36962891 C81.07244049 64.37278107 79.87583801 64.37593323 78.64297485 64.37918091 C77.33799042 64.37715668 76.03300598 64.37513245 74.68847656 64.37304688 C73.32677188 64.37372151 71.96506731 64.37469287 70.60336304 64.37594604 C67.73328518 64.37742445 64.86323832 64.37526987 61.99316406 64.37060547 C58.37592133 64.36500401 54.75875374 64.36821096 51.14151382 64.37405777 C35.72428107 64.39506493 20.35237393 64.26222982 4.96191406 63.24023438 C4.49785156 64.19929688 4.49785156 64.19929688 4.02441406 65.17773438 C2.96191406 67.24023438 2.96191406 67.24023438 1.96191406 68.24023438 C-0.26452056 68.36703794 -2.49557371 68.41608332 -4.72558594 68.42773438 C-5.94632812 68.44191406 -7.16707031 68.45609375 -8.42480469 68.47070312 C-12.76466691 68.19389029 -16.41966156 67.4810264 -19.91308594 64.80273438 C-21.03808594 63.24023438 -21.03808594 63.24023438 -21.03808594 60.24023438 C-26.64808594 59.58023438 -32.25808594 58.92023438 -38.03808594 58.24023438 C-37.54308594 57.25023438 -37.54308594 57.25023438 -37.03808594 56.24023438 C-38.02808594 56.73523438 -38.02808594 56.73523438 -39.03808594 57.24023438 C-42.45502994 57.26600874 -45.85739606 57.21179274 -49.27246094 57.11328125 C-51.19457057 57.08346751 -53.11761853 57.15538614 -55.03808594 57.24023438 C-55.69808594 57.90023437 -56.35808594 58.56023437 -57.03808594 59.24023438 C-59.87610745 59.49289468 -62.57424373 59.61051869 -65.41308594 59.61523438 C-66.18136719 59.63972656 -66.94964844 59.66421875 -67.74121094 59.68945312 C-71.25709274 59.70770165 -73.39482332 59.65696597 -76.38964844 57.71679688 C-80.62495582 51.35379953 -81.52254221 45.3369748 -81.41308594 37.80273438 C-81.4246875 37.00802734 -81.43628906 36.21332031 -81.44824219 35.39453125 C-81.41357697 28.29393994 -79.99250558 22.05689798 -75.91308594 16.17773438 C-71.00263041 12.86851435 -66.03171774 14.04965088 -60.40136719 14.58789062 C-50.31583837 15.56806398 -50.31583837 15.56806398 -41.03808594 12.24023438 C-40.10996094 11.00273438 -40.10996094 11.00273438 -39.16308594 9.74023438 C-36.34770081 6.42801658 -33.75361283 5.99454722 -29.63183594 4.92773438 C-27.260008 4.29905709 -25.06340261 3.52536104 -22.78808594 2.61523438 C-15.3199805 -0.12307095 -7.85156726 0.02214829 0 0 Z " fill="#FBFBFB" transform="translate(103.0380859375,35.759765625)"/>
<path d="M0 0 C1.32 0 2.64 0 4 0 C10.56269161 6.62489722 10.38987659 18.56516866 10.7890625 27.26171875 C10.69443756 29.91134041 10.69443756 29.91134041 12 31 C14.69654854 31.07319621 17.36691458 31.09242537 20.0625 31.0625 C20.82111328 31.05798828 21.57972656 31.05347656 22.36132812 31.04882812 C24.24091871 31.0370068 26.12046899 31.01907078 28 31 C27.67 28.03 27.34 25.06 27 22 C26.29875 21.731875 25.5975 21.46375 24.875 21.1875 C21.8350176 19.9318551 18.9272226 18.49764877 16 17 C25.65517241 5.17241379 25.65517241 5.17241379 32 2 C38.35198686 1.54703908 43.99722901 1.86568143 50 4 C46.59904027 5.13365324 44.467048 4.70916891 41 4 C35.8518608 3.61915208 35.8518608 3.61915208 31 5 C31.66 5.66 32.32 6.32 33 7 C33.3359375 9.49609375 33.3359375 9.49609375 33.375 12.4375 C33.40335938 13.40558594 33.43171875 14.37367187 33.4609375 15.37109375 C33 18 33 18 30.9765625 19.84765625 C30.32429688 20.22792969 29.67203125 20.60820313 29 21 C32.86291312 23.57527542 35.5572606 23.7651148 40.13671875 23.72265625 C45.65118264 22.33087478 47.99843856 17.495263 51 13 C51.99393589 11.99397244 52.99297285 10.99292312 54 10 C54.598125 8.948125 55.19625 7.89625 55.8125 6.8125 C58 4 58 4 60.9375 3.3125 C63.97202608 3.99372014 65.74811281 4.70595208 67.8359375 7.04296875 C72.13149389 14.26469274 74.17391514 23.95636455 74.0625 32.3125 C74.05347656 33.19550781 74.04445313 34.07851562 74.03515625 34.98828125 C74.02355469 35.65214844 74.01195313 36.31601563 74 37 C80.93756544 38.85188707 88.98192825 39.87297992 96 38 C99.47565737 35.66479271 101.58081431 32.27949475 103.90234375 28.8671875 C106.92975944 24.72915562 109.06171971 24.05242039 114 23 C116.33184892 22.65643605 118.66501839 22.32158429 121 22 C120.24493164 21.92483154 119.48986328 21.84966309 118.71191406 21.7722168 C115.22362614 21.41971107 111.73687829 21.05367687 108.25 20.6875 C107.06277344 20.56955078 105.87554687 20.45160156 104.65234375 20.33007812 C96.88985023 19.50292718 89.51594249 18.11223901 82 16 C85.55443659 15.00652979 87.95962362 15.13755736 91.625 15.75 C113.44413316 19.11206769 135.15552995 21.19414029 157.23413086 20.96362305 C163.89639361 20.91205978 170.38820399 21.15993063 177 22 C177.33 24.31 177.66 26.62 178 29 C178.07347656 28.04287109 178.07347656 28.04287109 178.1484375 27.06640625 C178.22320312 26.24011719 178.29796875 25.41382812 178.375 24.5625 C178.44460937 23.73878906 178.51421875 22.91507813 178.5859375 22.06640625 C178.72257813 21.38449219 178.85921875 20.70257813 179 20 C179.99 19.505 179.99 19.505 181 19 C180.90460938 20.12019531 180.80921875 21.24039063 180.7109375 22.39453125 C180.59838115 23.8671435 180.4864337 25.33980237 180.375 26.8125 C180.31054688 27.55048828 180.24609375 28.28847656 180.1796875 29.04882812 C179.82029739 33.80558496 179.82029739 33.80558496 182 38 C180.00954348 39.99045652 176.30045183 39.67640089 173.5625 40 C168.63342275 40.44361467 168.63342275 40.44361467 164 42 C162.1043346 42.09637799 160.20524217 42.12796235 158.30712891 42.12939453 C157.11052643 42.13254669 155.91392395 42.13569885 154.68106079 42.13894653 C153.37607635 42.1369223 152.07109192 42.13489807 150.7265625 42.1328125 C149.36485782 42.13348714 148.00315325 42.1344585 146.64144897 42.13571167 C143.77137111 42.13719008 140.90132426 42.13503549 138.03125 42.13037109 C134.41400726 42.12476963 130.79683967 42.12797658 127.17959976 42.13382339 C111.76236701 42.15483055 96.39045986 42.02199544 81 41 C80.5359375 41.9590625 80.5359375 41.9590625 80.0625 42.9375 C79 45 79 45 78 46 C75.77356538 46.12680356 73.54251223 46.17584894 71.3125 46.1875 C70.09175781 46.20167969 68.87101562 46.21585938 67.61328125 46.23046875 C63.27341902 45.95365592 59.61842438 45.24079202 56.125 42.5625 C55 41 55 41 55 38 C49.39 37.34 43.78 36.68 38 36 C38.495 35.01 38.495 35.01 39 34 C38.01 34.495 38.01 34.495 37 35 C33.583056 35.02577436 30.18068987 34.97155836 26.765625 34.87304688 C24.84351537 34.84323313 22.92046741 34.91515176 21 35 C20.34 35.66 19.68 36.32 19 37 C16.16197848 37.2526603 13.46384221 37.37028432 10.625 37.375 C9.85671875 37.39949219 9.0884375 37.42398438 8.296875 37.44921875 C4.71863522 37.46779093 2.62498905 37.41059151 -0.4140625 35.4140625 C-4.2533738 29.56998767 -4.36432082 23.25991901 -4.375 16.5 C-4.39949219 15.68402344 -4.42398437 14.86804688 -4.44921875 14.02734375 C-4.47736036 8.18326848 -3.2880696 4.83463198 0 0 Z " fill="#161616" transform="translate(27,58)"/>
<path d="M0 0 C1.27166016 -0.00322266 2.54332031 -0.00644531 3.85351562 -0.00976562 C17.23272724 0.06652848 28.3981306 2.21003851 38.375 11.8125 C39.91906783 13.32655147 39.91906783 13.32655147 41.5625 14.3125 C44.83492264 13.9164603 44.83492264 13.9164603 47.5625 12.3125 C48.5525 11.9825 49.5425 11.6525 50.5625 11.3125 C50.5625 12.3025 50.5625 13.2925 50.5625 14.3125 C48.5625 16 48.5625 16 46.5625 17.3125 C47.26117188 17.50585938 47.95984375 17.69921875 48.6796875 17.8984375 C49.58976562 18.15882812 50.49984375 18.41921875 51.4375 18.6875 C52.79488281 19.07035156 52.79488281 19.07035156 54.1796875 19.4609375 C56.5625 20.3125 56.5625 20.3125 58.5625 22.3125 C58.0675 22.8075 58.0675 22.8075 57.5625 23.3125 C58.51125 23.910625 59.46 24.50875 60.4375 25.125 C63.5625 27.3125 63.5625 27.3125 65.5625 30.3125 C64.5725 31.7975 64.5725 31.7975 63.5625 33.3125 C57.42704183 33.98182271 57.42704183 33.98182271 54.625 31.8125 C54.274375 31.3175 53.92375 30.8225 53.5625 30.3125 C56.2025 30.3125 58.8425 30.3125 61.5625 30.3125 C61.5625 29.6525 61.5625 28.9925 61.5625 28.3125 C56.9425 28.3125 52.3225 28.3125 47.5625 28.3125 C47.5625 27.9825 47.5625 27.6525 47.5625 27.3125 C50.8625 26.9825 54.1625 26.6525 57.5625 26.3125 C56.20125 25.1059375 56.20125 25.1059375 54.8125 23.875 C54.30203125 23.42253906 53.7915625 22.97007813 53.265625 22.50390625 C49.81735417 20.09169844 46.15739776 20.18957592 42.05957031 20.19897461 C40.40831146 20.19908791 40.40831146 20.19908791 38.72369385 20.19920349 C37.54128113 20.20436478 36.35886841 20.20952606 35.140625 20.21484375 C33.31794098 20.21696617 33.31794098 20.21696617 31.45843506 20.21913147 C27.57643169 20.22473012 23.69448594 20.2372824 19.8125 20.25 C17.18099042 20.25501517 14.54947993 20.25957805 11.91796875 20.26367188 C5.46612617 20.27469911 -0.9856828 20.29143592 -7.4375 20.3125 C-5.55476262 21.26834255 -3.67030771 22.22080245 -1.78515625 23.171875 C-0.73593994 23.70264648 0.31327637 24.23341797 1.39428711 24.78027344 C5.03234114 26.53972686 8.72165175 28.03710854 12.50390625 29.453125 C14.5625 30.3125 14.5625 30.3125 17.5625 32.3125 C17.5625 33.3025 17.5625 34.2925 17.5625 35.3125 C13.34337253 34.8330537 10.76586822 34.14624881 7.5625 31.3125 C7.5625 31.9725 7.5625 32.6325 7.5625 33.3125 C8.5525 33.8075 8.5525 33.8075 9.5625 34.3125 C4.80412392 33.7897996 1.43846584 31.55460514 -2.4375 28.9375 C-3.64541336 28.13738645 -4.85373943 27.33789557 -6.0625 26.5390625 C-6.63355469 26.1565332 -7.20460937 25.77400391 -7.79296875 25.37988281 C-9.28447999 24.41181762 -10.82786743 23.52487164 -12.375 22.6484375 C-13.055625 22.20757812 -13.73625 21.76671875 -14.4375 21.3125 C-14.4375 20.6525 -14.4375 19.9925 -14.4375 19.3125 C-19.57580608 17.96675317 -21.85237652 18.81152356 -26.4375 21.3125 C-27.0975 20.9825 -27.7575 20.6525 -28.4375 20.3125 C-28.1075 19.9825 -27.7775 19.6525 -27.4375 19.3125 C-28.93603516 18.93158203 -28.93603516 18.93158203 -30.46484375 18.54296875 C-31.7684063 18.19597728 -33.07178235 17.8482846 -34.375 17.5 C-35.03435547 17.33435547 -35.69371094 17.16871094 -36.37304688 16.99804688 C-38.27734375 16.48046875 -38.27734375 16.48046875 -41.4375 15.3125 C-41.7675 14.3225 -42.0975 13.3325 -42.4375 12.3125 C-41.7775 12.3125 -41.1175 12.3125 -40.4375 12.3125 C-40.169375 11.19875 -39.90125 10.085 -39.625 8.9375 C-38.4375 5.3125 -38.4375 5.3125 -35.4375 3.3125 C-32.5 2.875 -32.5 2.875 -29.4375 3.3125 C-27.27142475 5.53711782 -25.82061239 7.54627522 -24.4375 10.3125 C-24.2725 9.219375 -24.1075 8.12625 -23.9375 7 C-22.4375 3.3125 -22.4375 3.3125 -19.24609375 1.6015625 C-13.00882245 -0.48521791 -6.49980444 -0.08210971 0 0 Z " fill="#050505" transform="translate(113.4375,38.6875)"/>
<path d="M0 0 C4.40331482 3.22909753 8.04119952 7.13175116 11.8125 11.0625 C12.83066935 12.00289253 13.85088949 12.94108104 14.875 13.875 C16.8125 16.0625 16.8125 16.0625 16.8125 20.0625 C16.1525 20.3925 15.4925 20.7225 14.8125 21.0625 C14.34498212 23.41849235 14.34498212 23.41849235 14.1875 26.125 C14.11273438 27.04410156 14.03796875 27.96320313 13.9609375 28.91015625 C13.88746094 29.97556641 13.88746094 29.97556641 13.8125 31.0625 C13.1525 30.7325 12.4925 30.4025 11.8125 30.0625 C11.8125 27.7525 11.8125 25.4425 11.8125 23.0625 C11.00095459 23.08868408 10.18940918 23.11486816 9.35327148 23.1418457 C5.65238035 23.24621152 1.95179946 23.31095503 -1.75 23.375 C-3.66522461 23.4378418 -3.66522461 23.4378418 -5.61914062 23.50195312 C-16.39260122 23.6418682 -16.39260122 23.6418682 -21.32641602 19.21582031 C-24.74954677 17.0944941 -28.75113864 17.51771282 -32.68261719 17.35498047 C-38.64874618 16.85711041 -44.14490281 14.97170843 -49.8125 13.125 C-50.96878906 12.76470703 -52.12507813 12.40441406 -53.31640625 12.03320312 C-61.72927668 9.36798221 -61.72927668 9.36798221 -65.1875 7.0625 C-63.5375 9.3725 -61.8875 11.6825 -60.1875 14.0625 C-66.14578695 12.25373432 -71.84816426 10.02097831 -77.5625 7.5625 C-78.26439453 7.26593506 -78.96628906 6.96937012 -79.68945312 6.66381836 C-83.10967429 5.17056963 -85.66545861 3.80055179 -88.1875 1.0625 C-80.87658243 0.99277886 -73.56573735 0.93957712 -66.25455379 0.90706348 C-62.85911698 0.8914531 -59.46390879 0.87030068 -56.06860352 0.83618164 C-52.15904541 0.79714386 -48.24957768 0.78275247 -44.33984375 0.76953125 C-43.12916733 0.75404739 -41.91849091 0.73856354 -40.67112732 0.72261047 C-32.56415016 0.72100001 -26.64928213 1.46041133 -20.375 7 C-19.53001953 7.72509766 -19.53001953 7.72509766 -18.66796875 8.46484375 C-17.05277936 10.20788454 -16.14562328 11.89854351 -15.1875 14.0625 C-14.8575 13.0725 -14.5275 12.0825 -14.1875 11.0625 C-14.950625 10.464375 -15.71375 9.86625 -16.5 9.25 C-18.5358575 7.59290668 -20.3853279 5.95952326 -22.1875 4.0625 C-21.5275 4.0625 -20.8675 4.0625 -20.1875 4.0625 C-19.8575 3.0725 -19.5275 2.0825 -19.1875 1.0625 C-13.86396181 -2.60509889 -5.91403672 -1.73942256 0 0 Z " fill="#F2F2F2" transform="translate(192.1875,56.9375)"/>
<path d="M0 0 C3.3 0.33 6.6 0.66 10 1 C9.01 1.33 8.02 1.66 7 2 C7 2.66 7 3.32 7 4 C7.66644531 4.22429688 8.33289063 4.44859375 9.01953125 4.6796875 C12.90114067 6.39919469 16.20595977 8.71392365 19.6875 11.125 C23.98855837 14.56040967 23.98855837 14.56040967 29 16 C29 15.34 29 14.68 29 14 C29.53625 14.28875 30.0725 14.5775 30.625 14.875 C33.35280484 16.16711808 36.12612718 17.08558592 39 18 C38.49019669 14.22745547 37.79299818 12.55012877 35 10 C35 9.34 35 8.68 35 8 C35.53657227 8.18030762 36.07314453 8.36061523 36.62597656 8.54638672 C55.09449401 14.97924508 55.09449401 14.97924508 74.34375 17.66015625 C78.64363374 18.21028843 80.87091629 20.08922445 84 23 C84 23.33 84 23.66 84 24 C64.19001188 23.5890044 44.65316291 21.348717 25 19 C39.29687684 21.47316317 53.5275584 22.9650597 68 24 C68 24.33 68 24.66 68 25 C66.72125 25.03738281 65.4425 25.07476562 64.125 25.11328125 C62.4166396 25.17898742 60.70830753 25.24543311 59 25.3125 C58.16082031 25.33505859 57.32164062 25.35761719 56.45703125 25.38085938 C50.97515016 25.61458299 45.77705834 26.09709235 41 29 C38.59237403 31.8907258 38.59237403 31.8907258 36.625 35.1875 C34.45525233 38.23912776 32.56238652 40.57127031 28.859375 41.58740234 C22.7081944 42.28628441 16.52037593 41.89397559 10.5234375 40.37109375 C7.98722133 38.0884992 8.27234216 35.49305296 8 32.1875 C6.74001262 19.61159756 6.74001262 19.61159756 1.0703125 8.65234375 C-1.6922277 6.44752393 -3.56061611 6.68732874 -7 7 C-8.32 9.31 -9.64 11.62 -11 14 C-11.66 13.67 -12.32 13.34 -13 13 C-11.35445947 8.44311853 -9.96956525 4.98478263 -5.5 2.75 C-3 2 -3 2 0 2 C0 1.34 0 0.68 0 0 Z " fill="#F7F7F7" transform="translate(92,56)"/>
<path d="M0 0 C1.32 0 2.64 0 4 0 C10.56269161 6.62489722 10.38987659 18.56516866 10.7890625 27.26171875 C10.69443756 29.91134041 10.69443756 29.91134041 12 31 C14.69654854 31.07319621 17.36691458 31.09242537 20.0625 31.0625 C20.82111328 31.05798828 21.57972656 31.05347656 22.36132812 31.04882812 C24.24091871 31.0370068 26.12046899 31.01907078 28 31 C27.67 28.03 27.34 25.06 27 22 C26.29875 21.731875 25.5975 21.46375 24.875 21.1875 C21.8350176 19.9318551 18.9272226 18.49764877 16 17 C25.65517241 5.17241379 25.65517241 5.17241379 32 2 C38.35198686 1.54703908 43.99722901 1.86568143 50 4 C46.59904027 5.13365324 44.467048 4.70916891 41 4 C35.8518608 3.61915208 35.8518608 3.61915208 31 5 C31.66 5.66 32.32 6.32 33 7 C33.3359375 9.49609375 33.3359375 9.49609375 33.375 12.4375 C33.40335938 13.40558594 33.43171875 14.37367187 33.4609375 15.37109375 C33 18 33 18 30.9765625 19.84765625 C30.32429688 20.22792969 29.67203125 20.60820313 29 21 C32.86101739 23.57401159 35.55683739 23.75865073 40.1328125 23.734375 C44.88936315 22.51607592 46.80934965 19.12737682 49.44140625 15.1875 C49.95574219 14.465625 50.47007813 13.74375 51 13 C51.66 13 52.32 13 53 13 C52.98839844 14.0621875 52.97679687 15.124375 52.96484375 16.21875 C52.8781229 26.64610915 52.8781229 26.64610915 54 37 C50.32192463 38.22602512 48.11756073 37.70295577 44.3125 37.0625 C43.13300781 36.86785156 41.95351562 36.67320313 40.73828125 36.47265625 C39.38283203 36.23869141 39.38283203 36.23869141 38 36 C38.495 35.01 38.495 35.01 39 34 C38.01 34.495 38.01 34.495 37 35 C33.583056 35.02577436 30.18068987 34.97155836 26.765625 34.87304688 C24.84351537 34.84323313 22.92046741 34.91515176 21 35 C20.34 35.66 19.68 36.32 19 37 C16.16197848 37.2526603 13.46384221 37.37028432 10.625 37.375 C9.85671875 37.39949219 9.0884375 37.42398438 8.296875 37.44921875 C4.71863522 37.46779093 2.62498905 37.41059151 -0.4140625 35.4140625 C-4.2533738 29.56998767 -4.36432082 23.25991901 -4.375 16.5 C-4.39949219 15.68402344 -4.42398437 14.86804688 -4.44921875 14.02734375 C-4.47736036 8.18326848 -3.2880696 4.83463198 0 0 Z " fill="#EAEAEA" transform="translate(27,58)"/>
<path d="M0 0 C2.45842917 0.26998253 4.91674921 0.54090041 7.375 0.8125 C8.16358398 0.89943115 8.95216797 0.9863623 9.76464844 1.07592773 C14.67611417 1.62065564 19.58492247 2.18421606 24.4921875 2.765625 C41.50794916 4.77998272 58.08445303 6.14267861 75.23413086 5.96362305 C81.89639361 5.91205978 88.38820399 6.15993063 95 7 C95.495 10.465 95.495 10.465 96 14 C96.07347656 13.04287109 96.07347656 13.04287109 96.1484375 12.06640625 C96.22320312 11.24011719 96.29796875 10.41382812 96.375 9.5625 C96.44460937 8.73878906 96.51421875 7.91507812 96.5859375 7.06640625 C96.72257812 6.38449219 96.85921875 5.70257813 97 5 C97.66 4.67 98.32 4.34 99 4 C98.90460938 5.12019531 98.80921875 6.24039063 98.7109375 7.39453125 C98.59838115 8.8671435 98.4864337 10.33980237 98.375 11.8125 C98.31054688 12.55048828 98.24609375 13.28847656 98.1796875 14.04882812 C97.82029739 18.80558496 97.82029739 18.80558496 100 23 C98.00954348 24.99045652 94.30045183 24.67640089 91.5625 25 C86.63342275 25.44361467 86.63342275 25.44361467 82 27 C79.9983125 27.09144783 77.99351744 27.11751697 75.98974609 27.11352539 C74.72858978 27.11344986 73.46743347 27.11337433 72.1680603 27.11329651 C70.78651897 27.10818949 69.40497804 27.10297349 68.0234375 27.09765625 C66.6138209 27.09579144 65.20420366 27.09436783 63.79458618 27.09336853 C60.08246068 27.08954833 56.37037422 27.07972228 52.65826416 27.06866455 C48.87113981 27.05843975 45.08400917 27.05386862 41.296875 27.04882812 C33.86456552 27.03809958 26.43228823 27.02102911 19 27 C19 26.67 19 26.34 19 26 C22.96 25.67 26.92 25.34 31 25 C29.68 24.67 28.36 24.34 27 24 C27 23.34 27 22.68 27 22 C39.87 21.67 52.74 21.34 66 21 C66 17.7 66 14.4 66 11 C63.42788678 9.71394339 61.43093034 9.78956059 58.5546875 9.68359375 C57.47832031 9.64169922 56.40195313 9.59980469 55.29296875 9.55664062 C53.60107422 9.49766602 53.60107422 9.49766602 51.875 9.4375 C50.73933594 9.39431641 49.60367188 9.35113281 48.43359375 9.30664062 C45.62252232 9.2003396 42.81136055 9.09830595 40 9 C39.505 8.01 39.505 8.01 39 7 C36.4810831 6.48327054 36.4810831 6.48327054 33.41796875 6.25390625 C31.67676758 6.08084961 31.67676758 6.08084961 29.90039062 5.90429688 C28.67513672 5.79150391 27.44988281 5.67871094 26.1875 5.5625 C17.20028015 4.73479419 8.69623012 3.45938854 0 1 C0 0.67 0 0.34 0 0 Z " fill="#E0E0E0" transform="translate(109,73)"/>
<path d="M0 0 C2.21353112 0.09694476 4.42668899 0.16589841 6.64135742 0.23120117 C17.46003031 0.62268622 17.46003031 0.62268622 20.8894043 2.90893555 C21.2175293 5.2565918 21.2175293 5.2565918 21.1394043 7.97143555 C21.12393555 8.86991211 21.1084668 9.76838867 21.0925293 10.6940918 C20.8894043 12.90893555 20.8894043 12.90893555 19.8894043 13.90893555 C17.0050661 13.99758762 14.14478272 14.02414851 11.26049805 14.0065918 C9.96415184 14.00446938 9.96415184 14.00446938 8.64161682 14.00230408 C5.87001137 13.99668793 3.0984855 13.98413274 0.3269043 13.97143555 C-1.5474435 13.96642262 -3.42179255 13.96185936 -5.29614258 13.95776367 C-9.90099114 13.94671326 -14.50577991 13.92943784 -19.1105957 13.90893555 C-19.1105957 14.56893555 -19.1105957 15.22893555 -19.1105957 15.90893555 C-11.5205957 16.23893555 -3.9305957 16.56893555 3.8894043 16.90893555 C3.8894043 17.23893555 3.8894043 17.56893555 3.8894043 17.90893555 C-1.92724299 17.93379792 -7.7438588 17.95187204 -13.56054688 17.96386719 C-15.5361383 17.96887195 -17.51172607 17.97567779 -19.48730469 17.984375 C-22.33960884 17.99661047 -25.19186369 18.00220257 -28.04418945 18.0065918 C-28.91643661 18.01175308 -29.78868378 18.01691437 -30.68736267 18.02223206 C-36.23920653 18.02273115 -41.60228617 17.6117618 -47.1105957 16.90893555 C-47.1105957 16.57893555 -47.1105957 16.24893555 -47.1105957 15.90893555 C-45.66040039 16.00948242 -45.66040039 16.00948242 -44.1809082 16.11206055 C-35.97432349 16.33156777 -35.97432349 16.33156777 -29.16918945 12.27612305 C-27.45563396 10.18843161 -26.03804612 8.06323361 -24.55200195 5.79174805 C-18.17376455 -1.73967468 -8.99563263 -0.40014187 0 0 Z " fill="#030303" transform="translate(155.110595703125,81.091064453125)"/>
<path d="M0 0 C4.40331482 3.22909753 8.04119952 7.13175116 11.8125 11.0625 C12.83066935 12.00289253 13.85088949 12.94108104 14.875 13.875 C16.8125 16.0625 16.8125 16.0625 16.8125 20.0625 C15.8225 20.5575 15.8225 20.5575 14.8125 21.0625 C14.34498212 23.41849235 14.34498212 23.41849235 14.1875 26.125 C14.11273438 27.04410156 14.03796875 27.96320313 13.9609375 28.91015625 C13.91195312 29.62042969 13.86296875 30.33070312 13.8125 31.0625 C13.1525 30.7325 12.4925 30.4025 11.8125 30.0625 C11.8125 27.7525 11.8125 25.4425 11.8125 23.0625 C10.99048096 23.08344727 10.16846191 23.10439453 9.3215332 23.12597656 C5.58948036 23.20923309 1.85762306 23.26119247 -1.875 23.3125 C-3.16857422 23.34601563 -4.46214844 23.37953125 -5.79492188 23.4140625 C-7.04208984 23.42695312 -8.28925781 23.43984375 -9.57421875 23.453125 C-10.72108154 23.47407227 -11.86794434 23.49501953 -13.04956055 23.51660156 C-16.87176819 22.96347729 -18.48903086 21.77844191 -21.1875 19.0625 C-21.5175 18.0725 -21.8475 17.0825 -22.1875 16.0625 C-21.053125 15.794375 -19.91875 15.52625 -18.75 15.25 C-17.574375 14.858125 -16.39875 14.46625 -15.1875 14.0625 C-14.8575 13.0725 -14.5275 12.0825 -14.1875 11.0625 C-14.950625 10.464375 -15.71375 9.86625 -16.5 9.25 C-18.5358575 7.59290668 -20.3853279 5.95952326 -22.1875 4.0625 C-21.5275 4.0625 -20.8675 4.0625 -20.1875 4.0625 C-19.8575 3.0725 -19.5275 2.0825 -19.1875 1.0625 C-13.86396181 -2.60509889 -5.91403672 -1.73942256 0 0 Z " fill="#F6F6F6" transform="translate(192.1875,56.9375)"/>
<path d="M0 0 C-0.60585938 0.44988281 -1.21171875 0.89976563 -1.8359375 1.36328125 C-3.46527727 2.59557974 -5.05562571 3.87968809 -6.625 5.1875 C-9 7 -9 7 -11 7 C-11.28875 7.763125 -11.5775 8.52625 -11.875 9.3125 C-13 12 -13 12 -15 15 C-14.91428339 17.09291157 -14.91428339 17.09291157 -14 19 C-13.01 19.66 -12.02 20.32 -11 21 C-11 21.66 -11 22.32 -11 23 C-10.113125 23.268125 -9.22625 23.53625 -8.3125 23.8125 C-5.11923795 24.95725432 -2.64898403 25.88081277 0 28 C0.84715359 31.12795172 1 33.76811971 1 37 C-1.62450086 37.22119939 -4.24870486 37.42746669 -6.875 37.625 C-7.62136719 37.68945312 -8.36773437 37.75390625 -9.13671875 37.8203125 C-11.0870047 37.96087365 -13.04469467 37.98759849 -15 38 C-17.7549989 35.2450011 -17.29717831 33.47746811 -17.4375 29.625 C-17.90908636 21.43960817 -19.04496339 13.29370388 -23 6 C-24.92309422 6.03955898 -24.92309422 6.03955898 -27 7 C-30.25708478 12.04528819 -30.52519755 16.559935 -30.6875 22.375 C-30.72166016 23.20644531 -30.75582031 24.03789063 -30.79101562 24.89453125 C-30.87287146 26.92923351 -30.93812701 28.96459208 -31 31 C-31.33 31 -31.66 31 -32 31 C-32.08184423 28.02026385 -32.14089764 25.04283168 -32.1875 22.0625 C-32.21263672 21.23169922 -32.23777344 20.40089844 -32.26367188 19.54492188 C-32.34916062 12.22138604 -31.09230324 6.0153782 -26.875 -0.0625 C-19.66930421 -4.91851238 -8.23157405 -1.21467232 0 0 Z " fill="#ECECEC" transform="translate(54,52)"/>
<path d="M0 0 C1.32 0 2.64 0 4 0 C11.10111288 7.16842201 10.5979741 20.6286377 11 30 C14.6837622 31.54379132 18.03564468 32.44683414 22 33 C21.02734375 34.96875 21.02734375 34.96875 19 37 C16.03414333 37.40701968 13.51935396 37.55958396 10.5625 37.5 C9.4168457 37.52320312 9.4168457 37.52320312 8.24804688 37.546875 C4.69274353 37.52212093 2.60005148 37.39679255 -0.41015625 35.40625 C-4.26266456 29.57542661 -4.36433035 23.25388855 -4.375 16.5 C-4.39949219 15.68402344 -4.42398437 14.86804688 -4.44921875 14.02734375 C-4.47736036 8.18326848 -3.2880696 4.83463198 0 0 Z " fill="#0F0F0F" transform="translate(27,58)"/>
<path d="M0 0 C2.06064213 -0.00964269 4.12025788 -0.04068852 6.18066406 -0.07226562 C14.51444143 -0.13694434 21.99003321 0.74301869 29.96191406 3.24023438 C29.96191406 3.57023437 29.96191406 3.90023437 29.96191406 4.24023438 C28.97384766 4.22452393 27.98578125 4.20881348 26.96777344 4.19262695 C23.27026659 4.13795584 19.57279482 4.10375046 15.875 4.07543945 C14.28053765 4.06043692 12.68611598 4.04002816 11.09179688 4.01391602 C8.78798329 3.97715303 6.48471946 3.96042283 4.18066406 3.94726562 C3.47824585 3.93178177 2.77582764 3.91629791 2.05212402 3.90034485 C-3.23284819 3.89858403 -7.17465396 5.17327579 -12.03808594 7.24023438 C-12.36808594 9.88023438 -12.69808594 12.52023438 -13.03808594 15.24023438 C-14.57765713 13.18747278 -16.05584528 11.20978979 -17.35058594 8.99023438 C-18.99113695 6.91203729 -18.99113695 6.91203729 -22.10058594 6.92773438 C-24.96830522 7.05947472 -24.96830522 7.05947472 -27.03808594 8.24023438 C-27.42996094 9.39523438 -27.82183594 10.55023438 -28.22558594 11.74023438 C-29.12277344 13.47273438 -29.12277344 13.47273438 -30.03808594 15.24023438 C-32.35632884 15.66603409 -34.69547951 15.97994477 -37.03808594 16.24023438 C-42.28698841 18.75715878 -46.76390953 21.33960021 -50.03808594 26.24023438 C-49.55876124 21.92631211 -48.29228744 20.07453891 -45.03808594 17.24023438 C-46.02808594 16.58023438 -47.01808594 15.92023437 -48.03808594 15.24023438 C-47.51859375 15.00949219 -46.99910156 14.77875 -46.46386719 14.54101562 C-42.86872228 12.85973714 -40.31170102 11.52753021 -37.53808594 8.61523438 C-34.81473987 6.02805561 -32.79287788 5.42515086 -29.15136719 4.70507812 C-26.32937346 4.08434383 -23.7566626 3.02711269 -21.09277344 1.92382812 C-14.28892382 -0.33981005 -7.08085107 0.01997419 0 0 Z " fill="#EDEDED" transform="translate(103.0380859375,35.759765625)"/>
<path d="M0 0 C1.875 1.875 1.875 1.875 3 4 C2.67 4.99 2.34 5.98 2 7 C1.71125 6.360625 1.4225 5.72125 1.125 5.0625 C0.17176549 2.84793921 0.17176549 2.84793921 -2 2 C-1.67 4.64 -1.34 7.28 -1 10 C0.65 9.34 2.3 8.68 4 8 C4 9.32 4 10.64 4 12 C3.34 12 2.68 12 2 12 C2.03480469 13.19238281 2.06960937 14.38476562 2.10546875 15.61328125 C2.13360753 17.17967342 2.1609076 18.74608081 2.1875 20.3125 C2.22520508 21.49102539 2.22520508 21.49102539 2.26367188 22.69335938 C2.27817383 23.8293457 2.27817383 23.8293457 2.29296875 24.98828125 C2.31653442 26.03302612 2.31653442 26.03302612 2.34057617 27.09887695 C1.89124771 29.60706385 1.01480428 30.4826346 -1 32 C-4 32.125 -4 32.125 -7 31 C-10.50850994 24.70887872 -11.20823789 19.08741264 -10.75 12 C-10.68296875 10.80375 -10.6159375 9.6075 -10.546875 8.375 C-9.97700419 4.858083 -9.11068347 2.84210844 -7 0 C-4.24438552 -1.37780724 -2.90228766 -0.92023755 0 0 Z " fill="#C8C8C8" transform="translate(92,69)"/>
<path d="M0 0 C0.99 0.99 0.99 0.99 2 2 C0.35 3.32 -1.3 4.64 -3 6 C-2.30132812 6.19335938 -1.60265625 6.38671875 -0.8828125 6.5859375 C0.02726562 6.84632812 0.93734375 7.10671875 1.875 7.375 C2.77992188 7.63023438 3.68484375 7.88546875 4.6171875 8.1484375 C7 9 7 9 9 11 C8.67 11.33 8.34 11.66 8 12 C8.94875 12.598125 9.8975 13.19625 10.875 13.8125 C14 16 14 16 16 19 C15.01 20.485 15.01 20.485 14 22 C7.86454183 22.66932271 7.86454183 22.66932271 5.0625 20.5 C4.711875 20.005 4.36125 19.51 4 19 C6.64 19 9.28 19 12 19 C12 18.34 12 17.68 12 17 C7.38 17 2.76 17 -2 17 C-2 16.67 -2 16.34 -2 16 C1.3 15.67 4.6 15.34 8 15 C6.63875 13.7934375 6.63875 13.7934375 5.25 12.5625 C4.73953125 12.11003906 4.2290625 11.65757813 3.703125 11.19140625 C0.25485417 8.77919844 -3.40510224 8.87707592 -7.50292969 8.88647461 C-9.15418854 8.88658791 -9.15418854 8.88658791 -10.83880615 8.88670349 C-12.61242523 8.89444542 -12.61242523 8.89444542 -14.421875 8.90234375 C-16.24455902 8.90446617 -16.24455902 8.90446617 -18.10406494 8.90663147 C-21.98606831 8.91223012 -25.86801406 8.9247824 -29.75 8.9375 C-32.38150958 8.94251517 -35.01302007 8.94707805 -37.64453125 8.95117188 C-44.09637383 8.96219911 -50.5481828 8.97893592 -57 9 C-55.11726262 9.95584255 -53.23280771 10.90830245 -51.34765625 11.859375 C-50.29843994 12.39014648 -49.24922363 12.92091797 -48.16821289 13.46777344 C-44.53015886 15.22722686 -40.84084825 16.72460854 -37.05859375 18.140625 C-35 19 -35 19 -32 21 C-32 21.99 -32 22.98 -32 24 C-36.21912747 23.5205537 -38.79663178 22.83374881 -42 20 C-42 20.66 -42 21.32 -42 22 C-41.34 22.33 -40.68 22.66 -40 23 C-44.75837608 22.4772996 -48.12403416 20.24210514 -52 17.625 C-53.20791336 16.82488645 -54.41623943 16.02539557 -55.625 15.2265625 C-56.19605469 14.8440332 -56.76710938 14.46150391 -57.35546875 14.06738281 C-58.84697999 13.09931762 -60.39036743 12.21237164 -61.9375 11.3359375 C-62.9584375 10.67464844 -62.9584375 10.67464844 -64 10 C-64 9.34 -64 8.68 -64 8 C-60.92162206 6.97387402 -58.83425704 6.87909781 -55.6105957 6.88647461 C-54.50968094 6.88655014 -53.40876617 6.88662567 -52.27449036 6.88670349 C-51.08691635 6.89186478 -49.89934235 6.89702606 -48.67578125 6.90234375 C-47.45924362 6.9037587 -46.24270599 6.90517365 -44.98930359 6.90663147 C-41.0970109 6.91223688 -37.20477536 6.92479033 -33.3125 6.9375 C-30.67643312 6.9425143 -28.04036534 6.94707733 -25.40429688 6.95117188 C-18.93617836 6.96220807 -12.46809326 6.9789515 -6 7 C-6.495 5.515 -6.495 5.515 -7 4 C-3.535 2.02 -3.535 2.02 0 0 Z " fill="#AAAAAA" transform="translate(163,50)"/>
<path d="M0 0 C0.8048584 0.27046143 0.8048584 0.27046143 1.62597656 0.54638672 C20.09449401 6.97924508 20.09449401 6.97924508 39.34375 9.66015625 C43.64363374 10.21028843 45.87091629 12.08922445 49 15 C49 15.33 49 15.66 49 16 C30.59444882 15.52121231 12.14541995 14.27057829 -6 11 C-6 10.67 -6 10.34 -6 10 C-2.7 10 0.6 10 4 10 C3.49019669 6.22745547 2.79299818 4.55012877 0 2 C0 1.34 0 0.68 0 0 Z " fill="#FCFCFC" transform="translate(127,64)"/>
<path d="M0 0 C0 4.29 0 8.58 0 13 C-7.01805857 14.10087193 -13.90565767 14.09733092 -21 14 C-21.05395478 12.37536158 -21.09277195 10.75021459 -21.125 9.125 C-21.14820313 8.22007813 -21.17140625 7.31515625 -21.1953125 6.3828125 C-21 4 -21 4 -19 2 C-12.72542754 0.28875296 -6.47407217 -0.24430461 0 0 Z " fill="#030303" transform="translate(204,80)"/>
<path d="M0 0 C14.2995926 4.60357255 14.2995926 4.60357255 18 10 C18.0601304 12.33255842 18.0650154 14.66757263 18 17 C15.37549914 17.22119939 12.75129514 17.42746669 10.125 17.625 C9.37863281 17.68945312 8.63226563 17.75390625 7.86328125 17.8203125 C5.9129953 17.96087365 3.95530533 17.98759849 2 18 C0 16 0 16 -0.1953125 12.3046875 C-0.182009 10.82799892 -0.15814835 9.35137642 -0.125 7.875 C-0.11146484 6.74384766 -0.11146484 6.74384766 -0.09765625 5.58984375 C-0.0740687 3.72642746 -0.03819719 1.86317407 0 0 Z " fill="#F5F5F5" transform="translate(37,72)"/>
<path d="M0 0 C2.16607525 2.22461782 3.61688761 4.23377522 5 7 C5.66 6.34 6.32 5.68 7 5 C7.36256858 6.4562672 7.71479793 7.91511185 8.0625 9.375 C8.35833984 10.59316406 8.35833984 10.59316406 8.66015625 11.8359375 C9 14 9 14 8 16 C5.6859378 16.73075648 3.35171131 17.40138258 1 18 C1.33 17.34 1.66 16.68 2 16 C1.00097656 15.74605469 0.00195312 15.49210937 -1.02734375 15.23046875 C-2.3309063 14.88347728 -3.63428235 14.5357846 -4.9375 14.1875 C-5.59685547 14.02185547 -6.25621094 13.85621094 -6.93554688 13.68554688 C-8.83984375 13.16796875 -8.83984375 13.16796875 -12 12 C-12.33 11.01 -12.66 10.02 -13 9 C-12.34 9 -11.68 9 -11 9 C-10.731875 7.88625 -10.46375 6.7725 -10.1875 5.625 C-8.36712908 0.06807824 -5.53772481 -0.79110354 0 0 Z " fill="#A5A5A5" transform="translate(84,42)"/>
<path d="M0 0 C0.928125 0.33 1.85625 0.66 2.8125 1 C-0.58845973 2.13365324 -2.720452 1.70916891 -6.1875 1 C-11.3356392 0.61915208 -11.3356392 0.61915208 -16.1875 2 C-15.5275 2.66 -14.8675 3.32 -14.1875 4 C-13.8515625 6.49609375 -13.8515625 6.49609375 -13.8125 9.4375 C-13.78414062 10.40558594 -13.75578125 11.37367187 -13.7265625 12.37109375 C-14.1875 15 -14.1875 15 -16.2109375 16.84765625 C-16.86320312 17.22792969 -17.51546875 17.60820313 -18.1875 18 C-15.7125 19.98 -15.7125 19.98 -13.1875 22 C-17.25981667 21.39916639 -20.28984153 20.06294995 -23.875 18.0625 C-24.82761719 17.53785156 -25.78023437 17.01320313 -26.76171875 16.47265625 C-29.1875 15 -29.1875 15 -31.1875 13 C-21.64445375 3.14911355 -14.4957957 -4.18833441 0 0 Z " fill="#232323" transform="translate(74.1875,61)"/>
<path d="M0 0 C2.0625 0.4375 2.0625 0.4375 4 1 C3.67 1.61875 3.34 2.2375 3 2.875 C1.85806765 4.91018344 1.85806765 4.91018344 2 7 C2.66 7 3.32 7 4 7 C4.33 5.68 4.66 4.36 5 3 C6.94819445 4.94819445 6.1849869 8.53617465 6.1875 11.1875 C6.20167969 12.50105469 6.21585938 13.81460938 6.23046875 15.16796875 C5.96507756 19.58065953 4.96783937 23.06432126 3 27 C1.35 26.67 -0.3 26.34 -2 26 C-4.62516718 17.14006076 -5.44084048 9.3487801 -1 1 C-0.67 0.67 -0.34 0.34 0 0 Z " fill="#B4B4B4" transform="translate(28,64)"/>
<path d="M0 0 C3.85402129 -0.08770383 7.70778291 -0.14062735 11.5625 -0.1875 C12.64853516 -0.21263672 13.73457031 -0.23777344 14.85351562 -0.26367188 C22.85689695 -0.33665104 27.84641711 0.11480714 33.9375 5.6875 C34.9584375 6.8321875 34.9584375 6.8321875 36 8 C22.29913425 8.77936663 11.46672342 7.92477945 -1 2 C-0.67 1.34 -0.34 0.68 0 0 Z " fill="#FEFEFE" transform="translate(137,58)"/>
<path d="M0 0 C4.35088246 3.19064714 8.60068907 6.70199434 11.8125 11.0625 C11.56640625 13.34765625 11.56640625 13.34765625 10.8125 15.0625 C7.15933329 13.81273244 6.03184164 13.39151247 3.8125 10.0625 C4.4725 10.0625 5.1325 10.0625 5.8125 10.0625 C3.76176484 6.06896311 1.98619302 3.85122558 -2.1875 2.0625 C-4.83382287 2.3746764 -4.83382287 2.3746764 -7.1875 3.0625 C-7.8475 2.7325 -8.5075 2.4025 -9.1875 2.0625 C-10.73363014 2.14901631 -12.27659387 2.30252636 -13.8125 2.5 C-14.62976563 2.60183594 -15.44703125 2.70367187 -16.2890625 2.80859375 C-16.91554687 2.89238281 -17.54203125 2.97617187 -18.1875 3.0625 C-16.68896484 4.09310547 -16.68896484 4.09310547 -15.16015625 5.14453125 C-13.85648942 6.05428436 -12.55311931 6.96446279 -11.25 7.875 C-10.59064453 8.32681641 -9.93128906 8.77863281 -9.25195312 9.24414062 C-8.30932617 9.90639648 -8.30932617 9.90639648 -7.34765625 10.58203125 C-6.47572632 11.18688354 -6.47572632 11.18688354 -5.58618164 11.80395508 C-4.1875 13.0625 -4.1875 13.0625 -3.1875 16.0625 C-6.55847383 17.56071059 -8.39192119 18.0625 -12.1875 18.0625 C-12.1875 18.7225 -12.1875 19.3825 -12.1875 20.0625 C-14.125 19.6875 -14.125 19.6875 -16.1875 19.0625 C-16.5175 18.4025 -16.8475 17.7425 -17.1875 17.0625 C-15.2075 16.7325 -13.2275 16.4025 -11.1875 16.0625 C-15.67584076 9.48742275 -15.67584076 9.48742275 -22.1875 5.0625 C-21.5275 4.7325 -20.8675 4.4025 -20.1875 4.0625 C-19.8575 3.0725 -19.5275 2.0825 -19.1875 1.0625 C-13.86396181 -2.60509889 -5.91403672 -1.73942256 0 0 Z " fill="#F3F3F3" transform="translate(192.1875,56.9375)"/>
<path d="M0 0 C-0.99 0.495 -0.99 0.495 -2 1 C-2.391875 2.155 -2.78375 3.31 -3.1875 4.5 C-3.785625 5.655 -4.38375 6.81 -5 8 C-7.3182429 8.42579972 -9.65739357 8.7397104 -12 9 C-17.24890247 11.5169244 -21.72582359 14.09936583 -25 19 C-24.5206753 14.68607774 -23.2542015 12.83430453 -20 10 C-20.99 9.34 -21.98 8.68 -23 8 C-22.48050781 7.76925781 -21.96101563 7.53851563 -21.42578125 7.30078125 C-17.78932799 5.60018481 -15.2185756 4.22377978 -12.375 1.3125 C-8.47614719 -2.48375142 -4.57983553 -2.99450784 0 0 Z " fill="#D8D8D8" transform="translate(78,43)"/>
<path d="M0 0 C2.45842917 0.26998253 4.91674921 0.54090041 7.375 0.8125 C8.16358398 0.89943115 8.95216797 0.9863623 9.76464844 1.07592773 C14.67611417 1.62065564 19.58492247 2.18421606 24.4921875 2.765625 C44.57239151 5.22938313 44.57239151 5.22938313 64.76953125 5.984375 C66.60946655 5.97531128 66.60946655 5.97531128 68.48657227 5.96606445 C70.97024445 5.94721336 73.45386055 5.91733336 75.93725586 5.87573242 C77.07686768 5.86388916 78.21647949 5.8520459 79.390625 5.83984375 C80.42219727 5.82300537 81.45376953 5.80616699 82.51660156 5.78881836 C85 6 85 6 87 8 C80.89097705 8.76861456 74.96147282 9.13812351 68.80859375 9.09765625 C67.97787857 9.0962413 67.14716339 9.09482635 66.29127502 9.09336853 C63.67331125 9.0878317 61.05543733 9.07529162 58.4375 9.0625 C56.64778771 9.05747681 54.85807405 9.05291535 53.06835938 9.04882812 C48.71220567 9.03788308 44.356118 9.02066319 40 9 C39.505 8.01 39.505 8.01 39 7 C36.4810831 6.48327054 36.4810831 6.48327054 33.41796875 6.25390625 C31.67676758 6.08084961 31.67676758 6.08084961 29.90039062 5.90429688 C28.67513672 5.79150391 27.44988281 5.67871094 26.1875 5.5625 C17.20028015 4.73479419 8.69623012 3.45938854 0 1 C0 0.67 0 0.34 0 0 Z " fill="#B9B9B9" transform="translate(109,73)"/>
<path d="M0 0 C4.77728611 -0.31094762 7.5682493 0.46699016 11.75 2.75 C16.3985622 5.20453347 21.02074685 7.29840769 25.94140625 9.140625 C28 10 28 10 31 12 C31 12.99 31 13.98 31 15 C26.78087253 14.5205537 24.20336822 13.83374881 21 11 C21 11.66 21 12.32 21 13 C21.66 13.33 22.32 13.66 23 14 C18.25240603 13.46848568 14.83308505 11.2694095 10.9375 8.6875 C10.32583984 8.29626953 9.71417969 7.90503906 9.08398438 7.50195312 C5.6806232 5.28332957 2.76543525 3.01370375 0 0 Z " fill="#141414" transform="translate(100,59)"/>
<path d="M0 0 C1.875 1.875 1.875 1.875 3 4 C2.67 4.99 2.34 5.98 2 7 C1.71125 6.360625 1.4225 5.72125 1.125 5.0625 C0.17176549 2.84793921 0.17176549 2.84793921 -2 2 C-2.33 3.32 -2.66 4.64 -3 6 C-3 4.68 -3 3.36 -3 2 C-3.66 2 -4.32 2 -5 2 C-5.66 5.3 -6.32 8.6 -7 12 C-7.66 12 -8.32 12 -9 12 C-8.24230816 14.62946022 -7.46967057 17.2528236 -6.6875 19.875 C-6.47416016 20.62136719 -6.26082031 21.36773437 -6.04101562 22.13671875 C-4.67180933 26.85324103 -4.67180933 26.85324103 -1 30 C-1 30.66 -1 31.32 -1 32 C-3.8125 31.9375 -3.8125 31.9375 -7 31 C-10.50850994 24.70887872 -11.20823789 19.08741264 -10.75 12 C-10.68296875 10.80375 -10.6159375 9.6075 -10.546875 8.375 C-9.97700419 4.858083 -9.11068347 2.84210844 -7 0 C-4.24438552 -1.37780724 -2.90228766 -0.92023755 0 0 Z " fill="#CCCCCC" transform="translate(92,69)"/>
<path d="M0 0 C6.32557843 -1.00860601 10.74425307 -0.67386072 16.06542969 3.17016602 C18.4556215 5.03763828 20.77103502 6.94219464 23 9 C23 9.33 23 9.66 23 10 C20.66705225 10.04241723 18.33297433 10.04092937 16 10 C15.67 9.67 15.34 9.34 15 9 C13.25120432 8.89436805 11.50075682 8.81553635 9.75 8.75 C5.92362148 8.4564287 3.53559673 8.23952707 0.8125 5.4375 C0.214375 4.633125 -0.38375 3.82875 -1 3 C-0.67 2.01 -0.34 1.02 0 0 Z " fill="#DFDFDF" transform="translate(124,43)"/>
<path d="M0 0 C-0.33 0.66 -0.66 1.32 -1 2 C-3.49730821 2.45110762 -5.91997226 2.79517249 -8.4375 3.0625 C-13.36739922 3.4645658 -13.36739922 3.4645658 -18 5 C-20.0016875 5.09144783 -22.00648256 5.11751697 -24.01025391 5.11352539 C-25.27141022 5.11344986 -26.53256653 5.11337433 -27.8319397 5.11329651 C-29.21348103 5.10818949 -30.59502196 5.10297349 -31.9765625 5.09765625 C-33.3861791 5.09579144 -34.79579634 5.09436783 -36.20541382 5.09336853 C-39.91753932 5.08954833 -43.62962578 5.07972228 -47.34173584 5.06866455 C-51.12886019 5.05843975 -54.91599083 5.05386862 -58.703125 5.04882812 C-66.13543448 5.03809958 -73.56771177 5.02102911 -81 5 C-81 4.67 -81 4.34 -81 4 C-80.25656845 3.98160568 -79.5131369 3.96321136 -78.74717712 3.94425964 C-71.6729855 3.76689137 -64.59926933 3.57680841 -57.52579403 3.37313366 C-53.89095116 3.26890158 -50.25611364 3.16925402 -46.62084961 3.08081055 C-43.09966409 2.99496154 -39.57904314 2.89612194 -36.05844307 2.78899574 C-34.08996879 2.73227332 -32.121139 2.68833683 -30.15232849 2.64482117 C-22.19175881 2.3892485 -14.86923138 1.34240915 -7.14356995 -0.46708679 C-4.24543112 -0.95839333 -2.70865315 -1.00992661 0 0 Z " fill="#AFAFAF" transform="translate(209,95)"/>
<path d="M0 0 C2 2 2 2 3 5 C10.26 6.32 17.52 7.64 25 9 C25.495 10.98 25.495 10.98 26 13 C18.575 12.01 18.575 12.01 11 11 C11.33 10.34 11.66 9.68 12 9 C11.01 9.495 11.01 9.495 10 10 C2.85370476 10.40450728 -3.96803158 9.20057997 -11 8 C-8.1004339 6.34123921 -6.08364791 5.7638784 -2.75 5.875 C-0.89375 5.936875 -0.89375 5.936875 1 6 C0.67 4.02 0.34 2.04 0 0 Z " fill="#C1C1C1" transform="translate(54,83)"/>
<path d="M0 0 C2.02528894 0.00315844 4.04910928 -0.02037724 6.07421875 -0.0456543 C14.37323312 -0.04972244 21.72782253 0.84976486 29.66015625 3.31567383 C29.66015625 3.64567383 29.66015625 3.97567383 29.66015625 4.31567383 C20.09015625 3.98567383 10.52015625 3.65567383 0.66015625 3.31567383 C0.66015625 2.65567383 0.66015625 1.99567383 0.66015625 1.31567383 C-12.20984375 2.80067383 -12.20984375 2.80067383 -25.33984375 4.31567383 C-19.53128374 -1.49288618 -7.57295428 -0.02462305 0 0 Z " fill="#C1C1C1" transform="translate(103.33984375,35.684326171875)"/>
<path d="M0 0 C9.62552813 -0.71300208 16.87082592 2.71373232 24.40625 8.53515625 C26 10 26 10 28 13 C22.04171305 11.19123432 16.33933574 8.95847831 10.625 6.5 C9.92310547 6.20343506 9.22121094 5.90687012 8.49804688 5.60131836 C5.15652212 4.14242802 2.30934706 2.89109097 0 0 Z " fill="#EDEDED" transform="translate(104,58)"/>
<path d="M0 0 C2.375 2.0625 2.375 2.0625 4 5 C4.25 8.8125 4.25 8.8125 4 12 C-0.49797113 10.31326082 -4.72886302 8.18326108 -9 6 C-8.625 3.5625 -8.625 3.5625 -8 1 C-5.12529507 -0.43735246 -3.18105412 -0.38172649 0 0 Z " fill="#080808" transform="translate(84,42)"/>
<path d="M0 0 C7.59 0.33 15.18 0.66 23 1 C23.33 2.32 23.66 3.64 24 5 C23.360625 5.28875 22.72125 5.5775 22.0625 5.875 C19.84793921 6.82823451 19.84793921 6.82823451 19 9 C12.2813095 7.00386732 6.19265192 4.2708579 0 1 C0 0.67 0 0.34 0 0 Z " fill="#E4E4E4" transform="translate(152,66)"/>
<path d="M0 0 C4.35088246 3.19064714 8.60068907 6.70199434 11.8125 11.0625 C11.56640625 13.34765625 11.56640625 13.34765625 10.8125 15.0625 C7.15933329 13.81273244 6.03184164 13.39151247 3.8125 10.0625 C4.4725 10.0625 5.1325 10.0625 5.8125 10.0625 C3.76176484 6.06896311 1.98619302 3.85122558 -2.1875 2.0625 C-4.83382287 2.3746764 -4.83382287 2.3746764 -7.1875 3.0625 C-7.8475 2.7325 -8.5075 2.4025 -9.1875 2.0625 C-11.06612875 2.14994368 -12.94205181 2.30425542 -14.8125 2.5 C-16.31683594 2.65275391 -16.31683594 2.65275391 -17.8515625 2.80859375 C-18.62242187 2.89238281 -19.39328125 2.97617187 -20.1875 3.0625 C-14.83209674 -2.53633068 -7.1896135 -2.11459221 0 0 Z " fill="#C2C2C2" transform="translate(192.1875,56.9375)"/>
<path d="M0 0 C1.32 0 2.64 0 4 0 C6.72611199 2.72611199 7.47679633 5.23293356 8 9 C7.01 9.495 7.01 9.495 6 10 C5.67 10.99 5.34 11.98 5 13 C4.34 13 3.68 13 3 13 C2.375 11.125 2.375 11.125 2 9 C2.66 8.34 3.32 7.68 4 7 C2.01508358 7.26676204 2.01508358 7.26676204 0 8 C-0.33 8.99 -0.66 9.98 -1 11 C-1.99 11 -2.98 11 -4 11 C-3.49646154 6.66956925 -2.74386457 3.45523687 0 0 Z " fill="#242424" transform="translate(27,58)"/>
<path d="M0 0 C0.66 0 1.32 0 2 0 C3.12903226 4.51612903 3.12903226 4.51612903 2.5 6.875 C1.7871259 9.22495501 1.7871259 9.22495501 2.75 12.5 C2.87375 14.2325 2.87375 14.2325 3 16 C0.5625 18.4375 0.5625 18.4375 -2 20 C-2.66 16.7 -3.32 13.4 -4 10 C-3.34 10 -2.68 10 -2 10 C-1.855625 8.906875 -1.71125 7.81375 -1.5625 6.6875 C-1 3 -1 3 0 0 Z " fill="#8F8F8F" transform="translate(87,71)"/>
<path d="M0 0 C0.66 0 1.32 0 2 0 C2.10957031 0.58007812 2.21914062 1.16015625 2.33203125 1.7578125 C3.30972673 6.57475122 4.43992455 10.73320759 7 15 C7.66 15.33 8.32 15.66 9 16 C9 16.66 9 17.32 9 18 C6.1875 17.9375 6.1875 17.9375 3 17 C-0.49320992 11.52730446 -0.34479996 6.34687336 0 0 Z " fill="#DDDDDD" transform="translate(82,83)"/>
<path d="M0 0 C-0.33 0.66 -0.66 1.32 -1 2 C-3.49730821 2.45110762 -5.91997226 2.79517249 -8.4375 3.0625 C-13.36739922 3.4645658 -13.36739922 3.4645658 -18 5 C-20.55157655 5.0716735 -23.07472971 5.09308442 -25.625 5.0625 C-26.33140625 5.05798828 -27.0378125 5.05347656 -27.765625 5.04882812 C-29.51045275 5.03703875 -31.255237 5.01910324 -33 5 C-33 4.67 -33 4.34 -33 4 C-32.26362305 3.88406494 -31.52724609 3.76812988 -30.76855469 3.64868164 C-27.42874224 3.12180016 -24.08936963 2.59218047 -20.75 2.0625 C-19.59113281 1.88009766 -18.43226563 1.69769531 -17.23828125 1.50976562 C-16.12324219 1.33251953 -15.00820312 1.15527344 -13.859375 0.97265625 C-12.83295898 0.81031494 -11.80654297 0.64797363 -10.74902344 0.48071289 C-8.07175676 0.05274706 -8.07175676 0.05274706 -5.77441406 -0.58813477 C-3.57376767 -1.09893423 -2.12548539 -0.68319173 0 0 Z " fill="#444444" transform="translate(209,95)"/>
<path d="M0 0 C0.33 0 0.66 0 1 0 C1.23616171 6.63876808 1.02854626 11.94290748 -2 18 C-3.65 17.67 -5.3 17.34 -7 17 C-7.33 14.36 -7.66 11.72 -8 9 C-7.34 9 -6.68 9 -6 9 C-5.34 10.65 -4.68 12.3 -4 14 C-2.50859979 10.37802806 -1.2125738 6.72433382 0 3 C-0.99 3 -1.98 3 -3 3 C-2.67 2.34 -2.34 1.68 -2 1 C-1.34 1.33 -0.68 1.66 0 2 C0 1.34 0 0.68 0 0 Z " fill="#DADADA" transform="translate(33,73)"/>
<path d="M0 0 C2.9375 0.1875 2.9375 0.1875 6 1 C7.375 3.0625 7.375 3.0625 8 5 C7.01 6.485 7.01 6.485 6 8 C3.5 8.3125 3.5 8.3125 1 8 C-1 6 -1 6 -1.1875 3.4375 C-1 1 -1 1 0 0 Z " fill="#C5C5C5" transform="translate(164,44)"/>
<path d="M0 0 C4.0369867 1.79421631 6.64480474 3.20551875 9 7 C8.01 8.485 8.01 8.485 7 10 C0.86454183 10.66932271 0.86454183 10.66932271 -1.9375 8.5 C-2.288125 8.005 -2.63875 7.51 -3 7 C-0.36 7 2.28 7 5 7 C5 6.34 5 5.68 5 5 C0.38 5 -4.24 5 -9 5 C-9 4.67 -9 4.34 -9 4 C-5.7 3.67 -2.4 3.34 1 3 C0.67 2.01 0.34 1.02 0 0 Z " fill="#A4A4A4" transform="translate(170,62)"/>
<path d="M0 0 C0.66 0.33 1.32 0.66 2 1 C1.67 3.31 1.34 5.62 1 8 C0.01 8.33 -0.98 8.66 -2 9 C-1.01 9 -0.02 9 1 9 C0.67 10.32 0.34 11.64 0 13 C-1.65 12.67 -3.3 12.34 -5 12 C-5 8.7 -5 5.4 -5 2 C-4.01 2.99 -3.02 3.98 -2 5 C-1.34 3.35 -0.68 1.7 0 0 Z " fill="#A9A9A9" transform="translate(32,67)"/>
<path d="M0 0 C4.99783437 -0.36020428 7.98018872 0.65610065 12.375 3 C13.43460938 3.556875 14.49421875 4.11375 15.5859375 4.6875 C16.38257812 5.120625 17.17921875 5.55375 18 6 C18 6.33 18 6.66 18 7 C12.69844517 8.42236837 9.78605938 7.61057785 5 5 C2.0625 2.3125 2.0625 2.3125 0 0 Z " fill="#585858" transform="translate(100,59)"/>
<path d="M0 0 C4.32596028 0.25446825 6.52002301 0.6119335 9.9375 3.375 C12 6 12 6 12 9 C6.93982644 8.5535141 4.56694486 6.404811 1 3 C0.67 2.01 0.34 1.02 0 0 Z " fill="#E9E9E9" transform="translate(186,58)"/>
<path d="M0 0 C1.670625 0.061875 1.670625 0.061875 3.375 0.125 C3.417721 1.79111905 3.41563832 3.45882885 3.375 5.125 C2.375 6.125 2.375 6.125 -1.1875 6.1875 C-2.321875 6.166875 -3.45625 6.14625 -4.625 6.125 C-5.25 4.25 -5.25 4.25 -5.625 2.125 C-3.625 0.125 -3.625 0.125 0 0 Z " fill="#F9F9F9" transform="translate(70.625,43.875)"/>
<path d="M0 0 C1.32 0.33 2.64 0.66 4 1 C3.649375 1.5775 3.29875 2.155 2.9375 2.75 C1.85082593 5.35801776 2.06934867 6.39417629 3 9 C2.01 8.34 1.02 7.68 0 7 C-0.12375 8.299375 -0.2475 9.59875 -0.375 10.9375 C-0.5859375 13.15234375 -0.5859375 13.15234375 -1 15 C-1.99 15.495 -1.99 15.495 -3 16 C-3.55353075 4.29384966 -3.55353075 4.29384966 0 0 Z " fill="#ECECEC" transform="translate(28,64)"/>
<path d="M0 0 C-0.99 0.495 -0.99 0.495 -2 1 C-3.13350534 3.01669827 -3.13350534 3.01669827 -4 5 C-4 3.68 -4 2.36 -4 1 C-9.25260486 1.23811872 -9.25260486 1.23811872 -13.1875 4.4375 C-13.785625 5.283125 -14.38375 6.12875 -15 7 C-17 8.375 -17 8.375 -19 9 C-20.34313401 8.70865843 -21.67913658 8.37974823 -23 8 C-22.48050781 7.76925781 -21.96101563 7.53851563 -21.42578125 7.30078125 C-17.78932799 5.60018481 -15.2185756 4.22377978 -12.375 1.3125 C-8.47614719 -2.48375142 -4.57983553 -2.99450784 0 0 Z " fill="#C6C6C6" transform="translate(78,43)"/>
<path d="M0 0 C0.20413361 5.73842251 0.27141454 10.60539047 -2 16 C-4 14 -4 14 -4.046875 10.99609375 C-3.94890625 9.82175781 -3.8509375 8.64742187 -3.75 7.4375 C-3.66234375 6.26058594 -3.5746875 5.08367187 -3.484375 3.87109375 C-3.32453125 2.92363281 -3.1646875 1.97617188 -3 1 C-1 0 -1 0 0 0 Z " fill="#4C4C4C" transform="translate(97,80)"/>
<path d="M0 0 C5.61 0.33 11.22 0.66 17 1 C15.68 1.99 14.36 2.98 13 4 C12.67 4.66 12.34 5.32 12 6 C10.55903414 5.57405412 9.12231288 5.13373367 7.6875 4.6875 C6.88699219 4.44386719 6.08648437 4.20023437 5.26171875 3.94921875 C3 3 3 3 0 0 Z " fill="#D8D8D8" transform="translate(159,69)"/>
<path d="M0 0 C2.02915769 0.93942486 4.03875312 1.92598385 6 3 C6 3.33 6 3.66 6 4 C4.22950311 4.05410687 2.45853151 4.09284119 0.6875 4.125 C-0.79169922 4.15980469 -0.79169922 4.15980469 -2.30078125 4.1953125 C-5 4 -5 4 -8 2 C-8 1.34 -8 0.68 -8 0 C-5.04956141 -1.47521929 -3.17889616 -0.73359142 0 0 Z " fill="#0A0A0A" transform="translate(79,51)"/>
<path d="M0 0 C0.33 0 0.66 0 1 0 C0.67 5.61 0.34 11.22 0 17 C-2.99531539 17.99843846 -4.17255732 18.00732761 -7.1875 17.5625 C-8.445625 17.376875 -9.70375 17.19125 -11 17 C-11 16.67 -11 16.34 -11 16 C-8.36 16 -5.72 16 -3 16 C-3 14.02 -3 12.04 -3 10 C-2.67 10 -2.34 10 -2 10 C-1.93941406 9.36191406 -1.87882813 8.72382812 -1.81640625 8.06640625 C-1.73261719 7.24011719 -1.64882812 6.41382812 -1.5625 5.5625 C-1.48128906 4.73878906 -1.40007812 3.91507812 -1.31640625 3.06640625 C-1 1 -1 1 0 0 Z " fill="#BDBDBD" transform="translate(207,77)"/>
<path d="M0 0 C0.66 0.33 1.32 0.66 2 1 C2 1.66 2 2.32 2 3 C3.65 2.34 5.3 1.68 7 1 C7 2.32 7 3.64 7 5 C5.68 5.33 4.36 5.66 3 6 C2.67 7.98 2.34 9.96 2 12 C0.68 12.33 -0.64 12.66 -2 13 C-1.67 12.34 -1.34 11.68 -1 11 C-0.34 11 0.32 11 1 11 C0.84402344 10.28972656 0.68804687 9.57945313 0.52734375 8.84765625 C0.33269531 7.92855469 0.13804688 7.00945312 -0.0625 6.0625 C-0.25972656 5.14597656 -0.45695312 4.22945313 -0.66015625 3.28515625 C-0.82837891 2.15400391 -0.82837891 2.15400391 -1 1 C-0.67 0.67 -0.34 0.34 0 0 Z " fill="#E0E0E0" transform="translate(89,76)"/>
<path d="M0 0 C0 3 0 3 -1.4375 6.5625 C-4.06955661 14.01171682 -3.75547112 22.18350773 -4 30 C-4.33 30 -4.66 30 -5 30 C-5.08184423 27.02026385 -5.14089764 24.04283168 -5.1875 21.0625 C-5.21263672 20.23169922 -5.23777344 19.40089844 -5.26367188 18.54492188 C-5.33300365 12.60550011 -4.53097437 7.42247182 -2 2 C-1.34 1.34 -0.68 0.68 0 0 Z " fill="#B0B0B0" transform="translate(27,53)"/>
<path d="M0 0 C0 0.33 0 0.66 0 1 C-6.64795961 1.91299547 -12.87468898 1.98938155 -19.5625 1.5625 C-20.47580078 1.51029297 -21.38910156 1.45808594 -22.33007812 1.40429688 C-24.55387081 1.27622505 -26.77701936 1.14136041 -29 1 C-29 0.67 -29 0.34 -29 0 C-25.29215008 -0.19800942 -21.58371765 -0.38153245 -17.875 -0.5625 C-16.82828125 -0.61857422 -15.7815625 -0.67464844 -14.703125 -0.73242188 C-9.65148993 -0.97221468 -4.96874491 -1.16052 0 0 Z " fill="#9B9B9B" transform="translate(196,80)"/>
<path d="M0 0 C2.31 1.98 4.62 3.96 7 6 C6.67 7.32 6.34 8.64 6 10 C2.34683329 8.75023244 1.21934164 8.32901247 -1 5 C-0.34 5 0.32 5 1 5 C0.67 3.35 0.34 1.7 0 0 Z " fill="#666666" transform="translate(197,62)"/>
<path d="M0 0 C1.9375 0.8125 1.9375 0.8125 4 2 C4.33 2.99 4.66 3.98 5 5 C1.62902617 6.49821059 -0.20442119 7 -4 7 C-4 7.66 -4 8.32 -4 9 C-5.9375 8.625 -5.9375 8.625 -8 8 C-8.33 7.34 -8.66 6.68 -9 6 C-8.030625 5.87625 -7.06125 5.7525 -6.0625 5.625 C-5.051875 5.41875 -4.04125 5.2125 -3 5 C-2.67 4.34 -2.34 3.68 -2 3 C-0.68 3.33 0.64 3.66 2 4 C1.34 2.68 0.68 1.36 0 0 Z " fill="#C3C3C3" transform="translate(184,68)"/>
<path d="M0 0 C3.37462715 0.54723683 5.08235 1.0549 8 3 C8 3.99 8 4.98 8 6 C2.25 5.25 2.25 5.25 0 3 C0 2.01 0 1.02 0 0 Z " fill="#0E0E0E" transform="translate(123,68)"/>
<path d="M0 0 C5.35995109 0.33499694 9.11910334 3.55602548 13 7 C13.99 8.485 13.99 8.485 15 10 C12.03 9.01 9.06 8.02 6 7 C6 6.01 6 5.02 6 4 C4.02 3.01 2.04 2.02 0 1 C0 0.67 0 0.34 0 0 Z " fill="#C0C0C0" transform="translate(117,61)"/>
<path d="M0 0 C2 2 2 2 3 5 C3.66 5.66 4.32 6.32 5 7 C2.36 7 -0.28 7 -3 7 C-3 7.66 -3 8.32 -3 9 C-5.64 8.67 -8.28 8.34 -11 8 C-7.09971775 5.39981184 -3.52565431 5.84914486 1 6 C0.67 4.02 0.34 2.04 0 0 Z " fill="#B3B3B3" transform="translate(54,83)"/>
<path d="M0 0 C2.99332739 0.9977758 3.94766315 1.7522025 6 4 C5.34 5.32 4.68 6.64 4 8 C3.01 8 2.02 8 1 8 C-0.35439668 5.29120665 -0.06501451 2.99066732 0 0 Z " fill="#242424" transform="translate(90,71)"/>
<path d="M0 0 C0.66 0 1.32 0 2 0 C2.66 3.63 3.32 7.26 4 11 C3.01 11.33 2.02 11.66 1 12 C-0.26237731 9.47524538 -0.09856404 7.68799534 -0.0625 4.875 C-0.05347656 3.96492188 -0.04445313 3.05484375 -0.03515625 2.1171875 C-0.02355469 1.41851562 -0.01195313 0.71984375 0 0 Z " fill="#F8F8F8" transform="translate(82,83)"/>
<path d="M0 0 C0.66 0 1.32 0 2 0 C3.15837626 4.05431692 2.83691257 6.21812119 1 10 C0.01 10 -0.98 10 -2 10 C-1.54177532 6.53058454 -1.10868317 3.32604951 0 0 Z " fill="#717171" transform="translate(87,71)"/>
<path d="M0 0 C1.9606842 0.61758554 3.91849063 1.24431345 5.875 1.875 C6.96554688 2.22304688 8.05609375 2.57109375 9.1796875 2.9296875 C12 4 12 4 14 6 C13.34 6 12.68 6 12 6 C11.67 6.66 11.34 7.32 11 8 C10.484375 7.54625 9.96875 7.0925 9.4375 6.625 C6.42699426 4.61799617 3.49072763 3.87268191 0 3 C0 2.01 0 1.02 0 0 Z " fill="#C7C7C7" transform="translate(158,55)"/>
<path d="M0 0 C2.64 0 5.28 0 8 0 C8 0.33 8 0.66 8 1 C9.65 1.33 11.3 1.66 13 2 C13 2.33 13 2.66 13 3 C8.48382401 3.07654536 4.40914783 3.10228696 0 2 C0 1.34 0 0.68 0 0 Z " fill="#CFCFCF" transform="translate(51,90)"/>
<path d="M0 0 C0.33 0 0.66 0 1 0 C1 1.98 1 3.96 1 6 C0.34 6 -0.32 6 -1 6 C-1.33 8.31 -1.66 10.62 -2 13 C-2.33 13 -2.66 13 -3 13 C-3.31563182 7.73946963 -2.66590937 4.55426184 0 0 Z " fill="#E0E0E0" transform="translate(84,75)"/>
<path d="M0 0 C1.32 0.33 2.64 0.66 4 1 C4.33 2.32 4.66 3.64 5 5 C3.35 5 1.7 5 0 5 C0 3.35 0 1.7 0 0 Z " fill="#F9F9F9" transform="translate(165,45)"/>
<path d="M0 0 C1.5 1.3125 1.5 1.3125 3 3 C3 3.99 3 4.98 3 6 C1.35 5.67 -0.3 5.34 -2 5 C-1.125 1.125 -1.125 1.125 0 0 Z " fill="#0E0E0E" transform="translate(89,92)"/>
<path d="M0 0 C0.66 0 1.32 0 2 0 C3.2077558 3.62326739 2.54311128 4.64146369 1 8 C0.34 7.67 -0.32 7.34 -1 7 C-1.04254356 5.00045254 -1.04080783 2.99958364 -1 1 C-0.67 0.67 -0.34 0.34 0 0 Z " fill="#6C6C6C" transform="translate(29,80)"/>
<path d="M0 0 C0.66 0.66 1.32 1.32 2 2 C-2.75 5 -2.75 5 -5 5 C-5.33 5.66 -5.66 6.32 -6 7 C-6.33 6.01 -6.66 5.02 -7 4 C-4.69 2.68 -2.38 1.36 0 0 Z " fill="#ACACAC" transform="translate(163,50)"/>
<path d="M0 0 C4.875 4.75 4.875 4.75 6 7 C4.02 6.34 2.04 5.68 0 5 C-0.33 5.66 -0.66 6.32 -1 7 C-1.33 5.02 -1.66 3.04 -2 1 C-1.34 0.67 -0.68 0.34 0 0 Z " fill="#BDBDBD" transform="translate(37,67)"/>
<path d="M0 0 C1 3 1 3 0.22265625 4.82421875 C-0.8515625 6.54947917 -1.92578125 8.27473958 -3 10 C-3.66 9.67 -4.32 9.34 -5 9 C-3.7508258 5.54074837 -2.32472205 2.85306797 0 0 Z " fill="#B9B9B9" transform="translate(84,60)"/>
<path d="M0 0 C1.31602523 0.61754259 2.62773556 1.24428742 3.9375 1.875 C4.66839844 2.22304688 5.39929688 2.57109375 6.15234375 2.9296875 C8 4 8 4 9 6 C5.13351728 4.95902388 1.50538557 3.96301592 -2 2 C-1.34 1.34 -0.68 0.68 0 0 Z " fill="#E9E9E9" transform="translate(172,60)"/>
<path d="M0 0 C1.65 0.99 3.3 1.98 5 3 C4.67 4.32 4.34 5.64 4 7 C2.68 6.34 1.36 5.68 0 5 C0 3.35 0 1.7 0 0 Z " fill="#505050" transform="translate(28,73)"/>
<path d="M0 0 C0.66 0.33 1.32 0.66 2 1 C1.67 3.31 1.34 5.62 1 8 C0.34 8 -0.32 8 -1 8 C-0.67 5.36 -0.34 2.72 0 0 Z " fill="#BABABA" transform="translate(32,67)"/>
<path d="M0 0 C2.97 0 5.94 0 9 0 C8.67 0.99 8.34 1.98 8 3 C6.68 3 5.36 3 4 3 C4 2.34 4 1.68 4 1 C2.68 0.67 1.36 0.34 0 0 Z " fill="#4B4B4B" transform="translate(130,51)"/>
</svg>
